<svg xmlns="http://www.w3.org/2000/svg" viewBox="0 0 267 267" preserveAspectRatio="xMidYMid meet"><path fill="#fefefe" d="M28 0h211l12 5 9 8 6 11 1 4v211l-3 8-6 9-7 6-11 5H27l-9-4-8-6-7-9-3-9V28l3-9 7-9 8-6Z"/><path fill="#f07514" d="m132 27 10 1 16 8 22 12 21 12 22 13 6 5 4 9 1 4v89l-3 9-6 7-20 12-18 10-29 16-15 8-4 1h-7l-11-4-23-13-23-12-24-14-9-7-5-10-1-6V92l3-10 7-8 16-10 27-15 21-12 15-8Z"/><path fill="#f1f1f0" d="m135 78 14 8 26 15 9 6v56l-9 6-30 16-9 5-6-2-27-15-16-9-1-1v-57l25-14 22-13Z"/><path fill="#f07514" d="M233 136h1v44l-3 9-6 7-20 12-18 10-29 16-15 8-4 1h-7l-11-4-23-13-12-7 4-3 21-12 17-10 21-12 26-14 11-6 24-13 18-10Z"/><path fill="#7b4688" d="m184 51 12 6 24 14 9 7 4 9 1 4v45l-10 6-29 16-9 5h-2l-1-56-17-10-24-14-6-4v-2l19-10 18-10Z"/><path fill="#7b4688" d="M85 107h1l1 56 29 16 19 11-5 4-18 10-15 9-12 6-17-9-17-10-9-7-5-10-1-6v-42l28-16Z"/><path fill="#e2e2e0" d="M28 0h211l12 5 9 8 6 11 1 4v211l-3 8-6 9-7 6-11 5H27l-9-4-8-6-7-9-3-9V28l3-9 7-9 8-6Zm1 3L19 7 9 16 4 26l-1 3v209l5 12 8 8 9 5 5 1h207l9-3 8-6 6-7 4-10V29l-4-10-9-10-10-5-3-1Z"/><path fill="#fdfdfd" d="m135 78 14 8 26 15 9 6-4 3-19 10-21 12-5 2-16-8-28-15-3-2-1 54h-1v-57l25-14 22-13Z"/><path fill="#5ad4be" d="m184 51 12 6 24 14 9 7 2 4-27 15-18 10-4-1-25-14-15-9-6-4v-2l19-10 18-10Z"/><path fill="#116ba1" d="m85 163 5 2 28 15 17 10-5 4-18 10-15 9-12 6-17-9-17-10-9-7-2-4 26-15Z"/><path fill="#b8ce04" d="m135 190 14 8 26 15 9 5-4 4-26 14-11 6-4 1h-7l-11-4-23-13-12-7 4-3 21-12 17-10Z"/><path fill="#e2e2e0" d="m87 108 11 6 23 12 13 8 1 1 1 55-6-2-27-15-16-9Z"/><path fill="#7db526" d="m132 27 10 1 16 8 22 12 4 4-28 15-18 10-4 1-17-9-16-9-14-8v-2l25-14 16-8Z"/><path fill="#4abdc7" d="m86 163 12 6 23 13 14 8-5 4-18 10-15 9-9 5h-2Zm-1 55"/><path fill="#f6aa27" d="m85 51 5 2 26 14 16 9 3 3-23 13-24 14h-2Z"/><path fill="#36ac9d" d="M182 52h2v54l-6-2-24-14-17-10-1-3 19-10 18-10Z"/><path fill="#f6aa27" d="M183 163h1v55l-6-2-27-16-15-9v-2l28-15Zm1 55"/><path fill="#e74c51" d="m39 82 6 2 25 14 15 8v2l-25 14-22 13h-2V92Z"/><path fill="#4c3683" d="m185 108 5 2 25 14 18 11-5 4-13 8-24 13-6 2Z"/><path fill="#7db526" d="M133 191h2v52l-10-2-26-14-13-8 4-3 21-12 17-10Z"/><path fill="#4c3683" d="m36 136 16 8 16 9 12 7 5 3-5 4-25 14-13 8-3-1-2-5-1-6Z"/><path fill="#e74c51" d="M233 136h1v44l-3 9-4-1-23-13-19-11 4-4 21-11 18-10Z"/><path fill="#b8ce04" d="M132 27h3v51l-16-8-18-10-14-8v-2l25-14 16-8Z"/></svg>
